<svg xmlns="http://www.w3.org/2000/svg" viewBox="0 0 280 280">
  <defs>
    <clipPath id="circle-clip">
      <circle cx="140" cy="140" r="86" />
    </clipPath>
  </defs>

  <!-- Outer border -->
  <circle cx="140" cy="140" r="96" fill="#0012B5" />
  <circle cx="140" cy="140" r="90" fill="#FFFFFF" />
  <circle cx="140" cy="140" r="86" fill="#0076F5" />

  <!-- Stripes -->
  <g clip-path="url(#circle-clip)">
    <rect x="0" y="140" width="280" height="140" fill="#FFFFFF" />
    <rect x="55" y="140" width="10" height="140" fill="#0076F5" />
    <rect x="75" y="140" width="10" height="140" fill="#0076F5" />
    <rect x="95" y="140" width="10" height="140" fill="#0076F5" />
    <rect x="115" y="140" width="10" height="140" fill="#0076F5" />
    <rect x="135" y="140" width="10" height="140" fill="#0076F5" />
    <rect x="155" y="140" width="10" height="140" fill="#0076F5" />
    <rect x="175" y="140" width="10" height="140" fill="#0076F5" />
    <rect x="195" y="140" width="10" height="140" fill="#0076F5" />
    <rect x="215" y="140" width="10" height="140" fill="#0076F5" />
  </g>

  <!-- Horizontal banner -->
  <rect x="10" y="117" width="260" height="46" rx="8" fill="#0012B5" />
  <rect x="14" y="120" width="252" height="40" rx="5" fill="#FFFFFF" />
  <rect x="18" y="123" width="244" height="34" rx="3" fill="#0076F5" />

  <!-- Text -->
  <text x="140" y="148" fill="#FFFFFF" font-family="'Nunito', 'Arial Rounded MT Bold', system-ui, -apple-system, sans-serif" font-weight="900" font-style="italic" font-size="26px" text-anchor="middle">Blueberrys Cafe'</text>

  <!-- Coffee Cup -->
  <g transform="translate(140, 96)">
    <path d="M14,-5 C25,-5 25,6 12,8" fill="none" stroke="#FFFFFF" stroke-width="4" stroke-linecap="round" />
    <path d="M-18,-8 L18,-8 C18,12 -18,12 -18,-8 Z" fill="#FFFFFF" stroke="#FFFFFF" stroke-width="2" stroke-linejoin="round" />
    <path d="M-4,-14 C-8,-18 -1,-24 -5,-30" fill="none" stroke="#FFFFFF" stroke-width="3" stroke-linecap="round" />
    <path d="M5,-12 C10,-18 3,-25 8,-32" fill="none" stroke="#FFFFFF" stroke-width="3.5" stroke-linecap="round" />
  </g>
</svg>